<?xml version="1.0" encoding="UTF-8"?><svg id="Layer_1" xmlns="http://www.w3.org/2000/svg" viewBox="0 0 393.55 393.55"><defs><style>.cls-1{fill:#196572;}.cls-1,.cls-2{stroke-width:0px;}.cls-2{fill:#fff;}</style></defs><circle class="cls-1" cx="196.77" cy="196.77" r="196.77"/><path class="cls-2" d="m196.77,63.77c-73.34,0-133.01,59.67-133.01,133.01,0,20.11,4.38,39.44,13.03,57.46l.41.86,8.27-3.97-.42-.86c-8.03-16.75-12.11-34.75-12.11-53.49,0-68.28,55.55-123.82,123.83-123.82s123.83,55.55,123.83,123.82-55.55,123.83-123.83,123.83c-14.02,0-27.59-3.1-33.45-4.62V116.31h-9.18v206.56s3.26.99,3.26.99c1.98.61,19.92,5.93,39.38,5.93,73.34,0,133.01-59.67,133.01-133.01S270.12,63.77,196.77,63.77Z"/></svg>